<svg xmlns="http://www.w3.org/2000/svg" width="100" height="13" viewBox="0 0 100 13">
    <path fill="#222" fill-rule="evenodd" d="M3.367 12.489V7.385L0 .213h3.038l1.575 3.756c.048.095.087.208.115.34.029.133.062.25.1.355.038-.104.077-.224.115-.362a3.28 3.28 0 0 1 .115-.347L6.577.213h3.051L6.262 7.385v4.112a.877.877 0 0 1-.345.717 1.246 1.246 0 0 1-.801.275H3.367zm12.566-4.295c.038-.586.06-1.25.065-1.992a35.925 35.925 0 0 0-.022-1.75 3.337 3.337 0 0 0-.444-1.56c-.267-.454-.64-.68-1.118-.68-.44 0-.802.203-1.088.609-.287.406-.45.95-.488 1.63-.028.482-.04 1.137-.035 1.964.004.827.015 1.438.035 1.836.039.68.198 1.225.48 1.637.282.41.648.616 1.096.616.478 0 .839-.19 1.082-.573.244-.384.39-.963.437-1.737zm2.852-3.956c.048.672.071 1.375.071 2.113s-.023 1.455-.071 2.154c-.076 1.23-.485 2.238-1.225 3.027-.74.789-1.788 1.184-3.146 1.184-1.213 0-2.232-.375-3.059-1.127-.826-.752-1.273-1.783-1.34-3.098a38.225 38.225 0 0 1-.056-2.162c0-.77.018-1.471.056-2.104.067-1.238.511-2.252 1.333-3.041C12.17.394 13.191 0 14.414 0c1.281 0 2.31.404 3.089 1.212.779.809 1.206 1.817 1.282 3.026zm9.234 7.237c-.836.818-1.917 1.226-3.244 1.226-1.32 0-2.399-.408-3.239-1.226-.84-.817-1.26-1.849-1.26-3.096V.199h2.922v8.08c0 .708.153 1.255.459 1.638.305.381.678.573 1.118.573.448 0 .828-.192 1.138-.573.31-.383.466-.93.466-1.639V.198h2.894v8.18c0 1.248-.418 2.28-1.254 3.097zm5.066 1.014V2.424h-2.12c-.279 0-.486-.061-.623-.184-.14-.123-.21-.321-.21-.596V.213h8.813v1.431c0 .275-.069.473-.207.596-.14.123-.347.184-.624.184h-2.12v9.073a.881.881 0 0 1-.344.717 1.25 1.25 0 0 1-.803.275h-1.762zm12.91 0V7.273h-3.08v4.224a.881.881 0 0 1-.344.717c-.23.182-.498.275-.803.275h-1.763V.213h2.91v4.862h3.08V.213h2.91v11.284a.881.881 0 0 1-.345.717c-.23.182-.497.275-.802.275h-1.763zM56.47 8.194c.038-.586.06-1.25.064-1.992a35.926 35.926 0 0 0-.02-1.75 3.337 3.337 0 0 0-.445-1.56c-.267-.454-.64-.68-1.118-.68-.44 0-.803.203-1.09.609-.286.406-.447.95-.486 1.63a31.98 31.98 0 0 0-.036 1.964c.005.827.016 1.438.036 1.836.039.68.198 1.225.48 1.637.282.41.647.616 1.096.616.067 0 .134-.005.2-.014l-1.547-1.8h2.337l.4.439c.058-.274.101-.585.13-.935zm.33 4.196c-.535.217-1.15.326-1.85.326-1.212 0-2.23-.375-3.058-1.127-.827-.752-1.273-1.783-1.34-3.098a38.225 38.225 0 0 1-.056-2.162c0-.77.018-1.471.056-2.104.067-1.238.511-2.252 1.333-3.041C52.705.394 53.727 0 54.95 0c1.28 0 2.309.404 3.089 1.212.777.809 1.205 1.817 1.282 3.026a31.945 31.945 0 0 1 0 4.267c-.067 1.097-.397 2.014-.989 2.75L59.951 13h-2.636l-.516-.61zm8.31-7.84c-.019.066-.045.17-.078.312s-.06.25-.079.327l-.903 3.005h2.049l-.86-3.005a4.075 4.075 0 0 1-.065-.327 2.873 2.873 0 0 0-.064-.311zm2.25 7.939l-.674-2.211h-3.281l-.687 2.21h-2.995L63.834.213h2.408l4.125 12.277H67.36zm11.24-1.014c-.835.818-1.917 1.226-3.244 1.226-1.32 0-2.398-.408-3.239-1.226-.84-.817-1.26-1.849-1.26-3.096V.199h2.921v8.08c0 .708.154 1.255.46 1.638.305.381.678.573 1.118.573.448 0 .828-.192 1.138-.573.31-.383.466-.93.466-1.639V.198h2.895v8.18c0 1.248-.418 2.28-1.254 3.097zm8.82-7.491c0-.492-.122-.874-.366-1.148-.243-.275-.532-.412-.867-.412h-1.705v3.118h1.705c.335 0 .624-.136.867-.41.244-.274.366-.657.366-1.148zm-5.846 8.505V.213h4.757c1.25 0 2.23.36 2.937 1.084.707.723 1.061 1.619 1.061 2.687 0 .87-.268 1.615-.803 2.24-.535.623-1.046.959-1.533 1.006.325.236.569.465.731.687.162.223.296.49.401.802.23.652.476 1.356.739 2.112.261.755.57 1.308.923 1.658h-3.152c-.373-.35-.64-.904-.803-1.665a18.497 18.497 0 0 0-.544-2.035 3.076 3.076 0 0 0-.394-.801c-.168-.24-.318-.36-.451-.36h-.961v3.87a.875.875 0 0 1-.344.715c-.229.184-.496.276-.801.276h-1.763zM94.798 2.424v2.75h4.442v1.46c0 .274-.069.472-.208.596-.138.123-.346.184-.623.184H94.8v2.864H100v1.233c0 .321-.086.564-.258.73-.173.166-.421.248-.746.248h-6.103c-.325 0-.574-.082-.747-.248-.171-.166-.257-.409-.257-.73V.212H100v1.433c0 .274-.07.472-.208.594-.14.123-.347.185-.623.185H94.8z"/>
</svg>
